<svg id="Layer_1" data-name="Layer 1" xmlns="http://www.w3.org/2000/svg" viewBox="0 0 517.62 459.73"><defs><style>.cls-1{fill:#ace8ea;}.cls-2{fill:#fff;}.cls-3{fill:#29489a;}.cls-4{fill:#283674;}.cls-5{fill:#6f9fce;}.cls-6{fill:#6b9ac1;}.cls-7{fill:#dfdbf4;}.cls-8{fill:#737193;}.cls-9{fill:#e95443;}.cls-10{fill:#fcc753;}.cls-11{fill:#ffd153;}.cls-12{fill:#3c315e;}.cls-13{fill:#ada58f;}.cls-14{fill:#ffadbf;}.cls-15{fill:#020911;}.cls-16{fill:#e38088;}.cls-17{fill:#943462;}.cls-18{fill:#cb5582;}.cls-19{fill:#842251;}.cls-20{fill:#403560;}.cls-21{fill:#2e2849;}.cls-22{fill:#4c4972;}.cls-23{fill:#d7d3ec;}.cls-24{fill:#ce4836;}.cls-25{fill:#b2413b;}.cls-26{fill:#38120d;}.cls-27{fill:#40413d;}.cls-28{fill:#cdede7;}.cls-29{fill:none;stroke:#ace8ea;stroke-miterlimit:10;stroke-width:1.76px;}.cls-30{fill:#d2ffff;}.cls-31{fill:#a2e0e0;}</style></defs><title>back</title><path class="cls-1" d="M948.81,411.27A250.3,250.3,0,0,1,900.86,559q-2.8,3.87-5.75,7.61H499.6q-2.94-3.75-5.75-7.61a250.3,250.3,0,0,1-48-147.73c0-138.87,112.58-251.45,251.46-251.45S948.81,272.4,948.81,411.27Z" transform="translate(-431.19 -108.3)"/><path class="cls-2" d="M859.71,568a1,1,0,0,1-.71-.3,1,1,0,0,1,0-1.41l1.51-1.49a1,1,0,1,1,1.41,1.41c-.5.51-1,1-1.52,1.51A1,1,0,0,1,859.71,568Zm7.08-7.24a1,1,0,0,1-.68-.27,1,1,0,0,1-.05-1.42c1.8-1.92,3.6-3.91,5.34-5.91a1,1,0,0,1,1.51,1.32c-1.76,2-3.57,4-5.39,6A1,1,0,0,1,866.79,560.79Zm10.52-12.06a1,1,0,0,1-.63-.22,1,1,0,0,1-.15-1.41c1.66-2.05,3.32-4.16,4.92-6.27a1,1,0,0,1,1.4-.19A1,1,0,0,1,883,542c-1.61,2.13-3.28,4.26-5,6.32A1,1,0,0,1,877.31,548.73ZM887,536a1,1,0,0,1-.58-.18,1,1,0,0,1-.24-1.4c1.52-2.17,3-4.39,4.46-6.59a1,1,0,1,1,1.68,1.09c-1.45,2.22-3,4.46-4.5,6.65A1,1,0,0,1,887,536Zm8.73-13.41a1,1,0,0,1-.52-.14,1,1,0,0,1-.34-1.37c1.38-2.29,2.72-4.61,4-6.9a1,1,0,1,1,1.75,1c-1.28,2.31-2.64,4.65-4,7A1,1,0,0,1,895.69,522.56Zm7.77-14a.91.91,0,0,1-.45-.11,1,1,0,0,1-.44-1.34c1.2-2.36,2.38-4.77,3.5-7.16a1,1,0,0,1,1.81.84c-1.13,2.42-2.32,4.85-3.53,7.23A1,1,0,0,1,903.46,508.57Zm6.77-14.5a.88.88,0,0,1-.39-.08,1,1,0,0,1-.53-1.31c1-2.43,2-4.92,3-7.39a1,1,0,0,1,1.87.72c-1,2.49-2,5-3,7.45A1,1,0,0,1,910.23,494.07ZM486.28,483.74a1,1,0,0,1-.93-.66c-.92-2.5-1.81-5.05-2.64-7.59a1,1,0,0,1,1.9-.62c.82,2.51,1.7,5.05,2.61,7.52a1,1,0,0,1-.59,1.29A1,1,0,0,1,486.28,483.74ZM916,479.12a1,1,0,0,1-.33-.05,1,1,0,0,1-.62-1.27c.86-2.49,1.68-5,2.45-7.58a1,1,0,0,1,1.92.58c-.78,2.56-1.61,5.13-2.48,7.65A1,1,0,0,1,916,479.12ZM481.3,468.54a1,1,0,0,1-1-.72c-.74-2.55-1.44-5.16-2.1-7.76a1,1,0,0,1,.73-1.21,1,1,0,0,1,1.21.73c.65,2.57,1.35,5.15,2.08,7.68a1,1,0,0,1-.68,1.24A.9.9,0,0,1,481.3,468.54Zm439.32-4.73a.75.75,0,0,1-.26,0,1,1,0,0,1-.71-1.22c.68-2.57,1.32-5.17,1.91-7.74a1,1,0,0,1,1.2-.75,1,1,0,0,1,.75,1.2c-.59,2.58-1.24,5.21-1.93,7.8A1,1,0,0,1,920.62,463.81ZM477.4,453a1,1,0,0,1-1-.79c-.56-2.61-1.08-5.26-1.55-7.88a1,1,0,0,1,.81-1.16,1,1,0,0,1,1.16.81c.46,2.6,1,5.23,1.53,7.81a1,1,0,0,1-.77,1.19Zm446.78-4.83-.19,0a1,1,0,0,1-.8-1.17c.5-2.61,1-5.25,1.37-7.86a1,1,0,0,1,2,.31c-.41,2.63-.87,5.29-1.37,7.92A1,1,0,0,1,924.18,448.2ZM474.61,437.28a1,1,0,0,1-1-.86c-.37-2.64-.71-5.32-1-8a1,1,0,0,1,.89-1.1,1,1,0,0,1,1.1.89c.28,2.62.61,5.28,1,7.9a1,1,0,0,1-.85,1.13Zm452-4.91h-.12a1,1,0,0,1-.87-1.11c.31-2.61.58-5.28.8-7.93a1,1,0,0,1,2,.16c-.23,2.68-.5,5.37-.81,8A1,1,0,0,1,926.63,432.37Zm-453.7-11a1,1,0,0,1-1-.93c-.19-2.65-.33-5.35-.43-8a1,1,0,0,1,1-1,1,1,0,0,1,1,1c.1,2.65.24,5.32.42,7.95a1,1,0,0,1-.92,1.07Zm455-5h-.05a1,1,0,0,1-.95-1.05c.13-2.62.22-5.3.25-8a1,1,0,0,1,1-1,1,1,0,0,1,1,1c0,2.69-.12,5.39-.25,8A1,1,0,0,1,928,416.42Zm-455.62-11a1,1,0,0,1-1-1v-.31c0-2.57,0-5.17.13-7.72a1,1,0,0,1,1-1,1,1,0,0,1,1,1c-.08,2.53-.13,5.1-.13,7.65v.31A1,1,0,0,1,472.35,405.4Zm455.85-5a1,1,0,0,1-1-1c-.05-2.66-.15-5.33-.3-8a1,1,0,0,1,2-.11c.14,2.65.25,5.35.3,8a1,1,0,0,1-1,1Zm-455.31-11h-.07a1,1,0,0,1-.93-1.06c.18-2.67.41-5.36.68-8a1,1,0,0,1,1.1-.89,1,1,0,0,1,.89,1.1c-.27,2.62-.5,5.29-.68,7.93A1,1,0,0,1,472.89,389.42Zm454.43-5a1,1,0,0,1-1-.91c-.24-2.63-.52-5.3-.85-7.92a1,1,0,0,1,.87-1.12,1,1,0,0,1,1.11.87c.33,2.65.62,5.33.86,8a1,1,0,0,1-.9,1.08ZM474.53,373.51h-.14a1,1,0,0,1-.86-1.13c.37-2.64.79-5.31,1.25-7.93a1,1,0,1,1,2,.34c-.46,2.6-.87,5.24-1.23,7.87A1,1,0,0,1,474.53,373.51Zm450.81-4.92a1,1,0,0,1-1-.84c-.42-2.62-.89-5.26-1.4-7.84a1,1,0,0,1,.79-1.17,1,1,0,0,1,1.17.78c.51,2.61,1,5.27,1.42,7.91a1,1,0,0,1-.83,1.15ZM477.28,357.75a.75.75,0,0,1-.21,0,1,1,0,0,1-.77-1.18c.55-2.61,1.16-5.25,1.8-7.83a1,1,0,1,1,1.94.48c-.64,2.56-1.24,5.17-1.78,7.76A1,1,0,0,1,477.28,357.75Zm445-4.85a1,1,0,0,1-1-.77c-.6-2.57-1.26-5.17-1.95-7.72a1,1,0,1,1,1.93-.53c.7,2.58,1.36,5.2,2,7.79a1,1,0,0,1-.75,1.2A.85.85,0,0,1,922.24,352.9ZM481.13,342.23a.84.84,0,0,1-.27,0,1,1,0,0,1-.69-1.23c.73-2.56,1.52-5.15,2.35-7.69a1,1,0,0,1,1.9.62c-.82,2.52-1.6,5.08-2.33,7.62A1,1,0,0,1,481.13,342.23Zm436.92-4.76a1,1,0,0,1-1-.71c-.78-2.53-1.62-5.07-2.49-7.56a1,1,0,0,1,.61-1.27,1,1,0,0,1,1.28.61c.87,2.51,1.72,5.08,2.51,7.63a1,1,0,0,1-.66,1.25A.93.93,0,0,1,918.05,337.47ZM486.08,327a1,1,0,0,1-.34-.06,1,1,0,0,1-.6-1.28c.92-2.51,1.89-5,2.9-7.52a1,1,0,0,1,1.85.75c-1,2.46-2,5-2.87,7.45A1,1,0,0,1,486.08,327Zm426.69-4.63a1,1,0,0,1-.93-.64c-1-2.45-2-4.92-3-7.34a1,1,0,0,1,.52-1.32,1,1,0,0,1,1.32.53c1.05,2.44,2.07,4.93,3,7.41a1,1,0,0,1-.56,1.29A1,1,0,0,1,912.77,322.37ZM492.11,312.14a1,1,0,0,1-.41-.09,1,1,0,0,1-.51-1.32c1.09-2.43,2.24-4.89,3.42-7.29a1,1,0,0,1,1.79.88c-1.16,2.38-2.3,4.81-3.38,7.23A1,1,0,0,1,492.11,312.14Zm414.35-4.42a1,1,0,0,1-.9-.57c-1.13-2.38-2.32-4.78-3.53-7.12a1,1,0,0,1,1.78-.92c1.22,2.36,2.42,4.78,3.56,7.19a1,1,0,0,1-.48,1.33A1.11,1.11,0,0,1,906.46,307.72Zm-407.3-10a1,1,0,0,1-.88-1.47c1.26-2.35,2.58-4.72,3.92-7a1,1,0,0,1,1.36-.36,1,1,0,0,1,.37,1.37c-1.33,2.29-2.64,4.63-3.89,7A1,1,0,0,1,499.16,297.75Zm400-4.2a1,1,0,0,1-.87-.51c-1.29-2.3-2.64-4.61-4-6.86a1,1,0,1,1,1.7-1c1.39,2.27,2.75,4.6,4.06,6.92a1,1,0,0,1-.39,1.36A1,1,0,0,1,899.13,293.55ZM507.2,283.9a1,1,0,0,1-.53-.15,1,1,0,0,1-.31-1.38c1.42-2.26,2.9-4.53,4.4-6.73a1,1,0,1,1,1.65,1.12c-1.48,2.19-2.95,4.43-4.36,6.68A1,1,0,0,1,507.2,283.9Zm383.63-4a1,1,0,0,1-.84-.45c-1.45-2.2-3-4.41-4.49-6.56a1,1,0,0,1,.24-1.4,1,1,0,0,1,1.39.24c1.55,2.17,3.07,4.4,4.53,6.62a1,1,0,0,1-.83,1.55ZM516.2,270.66a1,1,0,0,1-.59-.19,1,1,0,0,1-.22-1.4c1.57-2.15,3.21-4.3,4.86-6.41a1,1,0,0,1,1.57,1.24c-1.64,2.08-3.26,4.22-4.81,6.35A1,1,0,0,1,516.2,270.66Zm365.38-3.78a1,1,0,0,1-.79-.39c-1.61-2.1-3.27-4.2-4.94-6.24a1,1,0,1,1,1.54-1.27c1.69,2.06,3.37,4.18,5,6.3a1,1,0,0,1-.19,1.4A1,1,0,0,1,881.58,266.88Zm-355.49-8.8a1,1,0,0,1-.64-.24,1,1,0,0,1-.12-1.41c1.72-2,3.5-4.07,5.29-6a1,1,0,1,1,1.48,1.34c-1.77,2-3.53,4-5.24,6A1,1,0,0,1,526.09,258.08Zm345.35-3.55a1,1,0,0,1-.75-.34c-1.75-2-3.55-4-5.36-5.88a1,1,0,0,1,0-1.42,1,1,0,0,1,1.41,0c1.83,1.93,3.65,3.93,5.41,5.94a1,1,0,0,1-.08,1.41A1,1,0,0,1,871.44,254.53Zm-334.6-8.3a1,1,0,0,1-.72-1.7c1.85-1.9,3.77-3.81,5.7-5.66a1,1,0,1,1,1.38,1.44c-1.91,1.84-3.81,3.73-5.65,5.61A1,1,0,0,1,536.84,246.23Zm323.62-3.33a1,1,0,0,1-.7-.29c-1.88-1.85-3.82-3.7-5.76-5.49a1,1,0,0,1-.06-1.42,1,1,0,0,1,1.41,0c2,1.8,3.92,3.67,5.82,5.54a1,1,0,0,1-.71,1.71Zm-312.09-7.74a1,1,0,0,1-.74-.34,1,1,0,0,1,.08-1.41c2-1.77,4-3.54,6.07-5.25a1,1,0,0,1,1.41.13,1,1,0,0,1-.13,1.41c-2,1.69-4,3.44-6,5.2A1,1,0,0,1,548.37,235.16Zm300.33-3.09a1,1,0,0,1-.65-.25c-2-1.72-4.08-3.43-6.14-5.08a1,1,0,0,1,1.25-1.56c2.08,1.66,4.16,3.38,6.19,5.13a1,1,0,0,1-.65,1.76Zm-288.05-7.15a1,1,0,0,1-.61-1.79c2.11-1.63,4.27-3.25,6.42-4.81a1,1,0,0,1,1.4.23,1,1,0,0,1-.23,1.39c-2.13,1.55-4.28,3.15-6.37,4.77A1,1,0,0,1,560.65,224.92Zm275.55-2.85a1,1,0,0,1-.6-.19c-2.12-1.59-4.3-3.15-6.47-4.65a1,1,0,1,1,1.13-1.64c2.19,1.51,4.39,3.09,6.54,4.68a1,1,0,0,1,.2,1.4A1,1,0,0,1,836.2,222.07Zm-262.59-6.5a1,1,0,0,1-.83-.44,1,1,0,0,1,.27-1.39c2.21-1.48,4.47-2.94,6.74-4.34a1,1,0,1,1,1.06,1.69c-2.25,1.4-4.5,2.85-6.69,4.31A.94.94,0,0,1,573.61,215.57ZM823,213a1,1,0,0,1-.54-.15c-2.23-1.43-4.52-2.84-6.79-4.18a1,1,0,1,1,1-1.72c2.29,1.35,4.6,2.77,6.85,4.21a1,1,0,0,1,.3,1.38A1,1,0,0,1,823,213Zm-235.85-5.81a1,1,0,0,1-.87-.51,1,1,0,0,1,.37-1.36c2.3-1.32,4.67-2.62,7-3.86a1,1,0,1,1,.94,1.77c-2.34,1.23-4.68,2.52-7,3.82A1,1,0,0,1,587.18,207.16Zm222.06-2.34a1,1,0,0,1-.47-.12c-2.32-1.27-4.7-2.51-7.07-3.7a1,1,0,0,1-.45-1.34,1,1,0,0,1,1.34-.45c2.39,1.2,4.8,2.46,7.13,3.73a1,1,0,0,1-.48,1.88Zm-208-5.1a1,1,0,0,1-.43-1.91c2.39-1.15,4.84-2.28,7.27-3.35a1,1,0,0,1,.81,1.83c-2.41,1.06-4.84,2.18-7.21,3.33A1.13,1.13,0,0,1,601.29,199.72Zm193.62-2.07a1,1,0,0,1-.41-.09c-2.41-1.1-4.87-2.17-7.32-3.19a1,1,0,0,1-.54-1.3,1,1,0,0,1,1.31-.54c2.47,1,4.95,2.1,7.38,3.21a1,1,0,0,1-.42,1.91Zm-179-4.36a1,1,0,0,1-.37-1.93c2.48-1,5-2,7.51-2.84a1,1,0,1,1,.68,1.88c-2.48.89-5,1.84-7.45,2.82A1,1,0,0,1,615.89,193.29Zm164.21-1.78a1,1,0,0,1-.34-.06c-2.49-.93-5-1.83-7.53-2.67a1,1,0,1,1,.63-1.89c2.53.84,5.09,1.75,7.59,2.68a1,1,0,0,1-.35,1.94Zm-149.16-3.62a1,1,0,0,1-.3-1.95c2.54-.81,5.13-1.59,7.7-2.31a1,1,0,0,1,.54,1.93c-2.55.71-5.12,1.48-7.63,2.28A.81.81,0,0,1,630.94,187.89Zm134-1.45a.92.92,0,0,1-.28-.05c-2.54-.74-5.12-1.46-7.68-2.11a1,1,0,1,1,.5-1.94c2.58.66,5.19,1.38,7.74,2.14a1,1,0,0,1,.68,1.24A1,1,0,0,1,764.91,186.44Zm-118.57-2.87a1,1,0,0,1-.23-2c2.58-.63,5.22-1.22,7.84-1.76a1,1,0,0,1,.4,2c-2.59.54-5.21,1.12-7.77,1.74Zm103.09-1.12a.78.78,0,0,1-.22,0c-2.59-.57-5.22-1.1-7.81-1.57a1,1,0,0,1,.36-2c2.61.48,5.26,1,7.88,1.59a1,1,0,0,1-.21,2ZM662,180.35a1,1,0,0,1-.17-2c2.62-.45,5.3-.85,7.94-1.2a1,1,0,1,1,.27,2c-2.63.35-5.28.75-7.87,1.19Zm71.68-.77h-.14c-2.62-.39-5.28-.73-7.9-1a1,1,0,0,1,.22-2c2.65.3,5.33.64,8,1a1,1,0,0,1-.15,2Zm-55.83-1.34a1,1,0,0,1-.1-2c2.66-.26,5.35-.47,8-.64a1,1,0,0,1,1.06.94,1,1,0,0,1-.94,1.06c-2.63.16-5.3.38-7.93.63Zm39.94-.43h-.08c-2.63-.2-5.31-.36-8-.47a1,1,0,0,1-.95-1,1,1,0,0,1,1-1c2.66.11,5.36.27,8,.47a1,1,0,0,1,.93,1.08A1,1,0,0,1,717.8,177.81Zm-24-.57a1,1,0,0,1,0-2c2.67-.07,5.37-.11,8-.09a1,1,0,0,1,1,1,1,1,0,0,1-1,1h0c-2.64,0-5.32,0-8,.09Z" transform="translate(-431.19 -108.3)"/><path class="cls-3" d="M944.51,413.07l-22,51.4a.65.65,0,0,1-.85.35L880.7,447.28a.52.52,0,0,1-.26-.2.44.44,0,0,1-.11-.24v0l-1.82-6.93h0v0l.33-.22,6.18-4,17.31-40.43a.65.65,0,0,1,.85-.34L937,409.33l5.57-3.65,0,.09h0l1.74,6.79a.68.68,0,0,1,.12.46Z" transform="translate(-431.19 -108.3)"/><path class="cls-4" d="M921.65,464.82,880.7,447.28a.52.52,0,0,1-.26-.2.44.44,0,0,1-.11-.24v0l-1.82-6.93h0v0l.33-.22,40.56,18Z" transform="translate(-431.19 -108.3)"/><rect class="cls-5" x="882.02" y="399.84" width="57.07" height="45.84" rx="0.65" transform="translate(-267.64 985.14) rotate(-66.82)"/><path class="cls-6" d="M942.6,406.14l-22,51.28a.65.65,0,0,1-.85.34l-40.95-17.54a.64.64,0,0,1-.34-.85h0a21.09,21.09,0,0,1,9.06-10.1l42.31-23.87a12.65,12.65,0,0,1,11.2-.61l1.18.5A.65.65,0,0,1,942.6,406.14Z" transform="translate(-431.19 -108.3)"/><rect class="cls-2" x="910.94" y="391.54" width="10.87" height="36.59" rx="2.7" transform="translate(-252.23 982.66) rotate(-66.82)"/><path class="cls-7" d="M934.27,414.53l-2.15,5a2.71,2.71,0,0,1-3.55,1.42l-15-6.4,11.92-6.72,7.31,3.13A2.71,2.71,0,0,1,934.27,414.53Z" transform="translate(-431.19 -108.3)"/><path class="cls-8" d="M932.85,411l-28.67-12.27a2.7,2.7,0,0,0-3.55,1.42l-.22.53a2.68,2.68,0,0,1,3.54-1.42l28.67,12.27a2.7,2.7,0,0,1,1.42,3.55l.23-.53A2.7,2.7,0,0,0,932.85,411Z" transform="translate(-431.19 -108.3)"/><path class="cls-6" d="M922.56,464.34l-.06.13a.65.65,0,0,1-.85.35l-2.27-7.24.42.18a.65.65,0,0,0,.85-.34Z" transform="translate(-431.19 -108.3)"/><rect class="cls-8" x="894.74" y="413.29" width="5.57" height="3.94" rx="1.9" transform="translate(-195.33 -428.02) rotate(23.18)"/><rect class="cls-2" x="894.57" y="412.9" width="5.57" height="3.94" rx="1.9" transform="translate(-195.5 -427.99) rotate(23.18)"/><rect class="cls-8" x="901.8" y="416.31" width="5.57" height="3.94" rx="1.9" transform="translate(-193.57 -430.55) rotate(23.18)"/><rect class="cls-2" x="901.62" y="415.92" width="5.57" height="3.94" rx="1.9" transform="translate(-193.74 -430.52) rotate(23.18)"/><rect class="cls-8" x="908.85" y="419.33" width="5.57" height="3.94" rx="1.9" transform="translate(-191.78 -433.12) rotate(23.18)"/><rect class="cls-2" x="908.68" y="418.94" width="5.57" height="3.94" rx="1.9" transform="translate(-191.94 -433.09) rotate(23.18)"/><rect class="cls-8" x="915.91" y="422.35" width="5.57" height="3.94" rx="1.9" transform="translate(-190.02 -435.66) rotate(23.18)"/><rect class="cls-2" x="915.73" y="421.96" width="5.57" height="3.94" rx="1.9" transform="translate(-190.22 -435.59) rotate(23.18)"/><rect class="cls-9" x="922.96" y="425.37" width="5.57" height="3.94" rx="1.9" transform="translate(-188.31 -438.14) rotate(23.17)"/><rect class="cls-10" x="922.79" y="424.98" width="5.57" height="3.94" rx="1.9" transform="translate(-188.47 -438.12) rotate(23.18)"/><rect class="cls-8" x="891.23" y="421.5" width="5.57" height="3.94" rx="1.9" transform="translate(-192.4 -425.96) rotate(23.17)"/><rect class="cls-2" x="891.05" y="421.12" width="5.57" height="3.94" rx="1.9" transform="translate(-192.51 -425.97) rotate(23.18)"/><rect class="cls-8" x="898.28" y="424.53" width="5.57" height="3.94" rx="1.9" transform="translate(-190.59 -428.54) rotate(23.18)"/><rect class="cls-2" x="898.1" y="424.14" width="5.57" height="3.94" rx="1.9" transform="translate(-190.75 -428.51) rotate(23.18)"/><rect class="cls-8" x="905.34" y="427.55" width="5.57" height="3.94" rx="1.9" transform="translate(-188.88 -431.03) rotate(23.17)"/><rect class="cls-2" x="905.16" y="427.16" width="5.57" height="3.94" rx="1.9" transform="translate(-189.03 -431) rotate(23.18)"/><rect class="cls-8" x="912.39" y="430.57" width="5.57" height="3.94" rx="1.9" transform="translate(-187.1 -433.58) rotate(23.18)"/><rect class="cls-2" x="912.22" y="430.18" width="5.57" height="3.94" rx="1.9" transform="matrix(0.92, 0.39, -0.39, 0.92, -187.29, -433.52)"/><rect class="cls-8" x="919.45" y="433.59" width="5.57" height="3.94" rx="1.9" transform="translate(-185.35 -436.11) rotate(23.18)"/><rect class="cls-2" x="919.27" y="433.2" width="5.57" height="3.94" rx="1.9" transform="translate(-185.48 -436.11) rotate(23.18)"/><path class="cls-8" d="M899.26,433.88l-.79-.33-1.5-.65-7.06-3a1.55,1.55,0,0,0-2,.81l-.34.79a1.54,1.54,0,0,0,.81,2l7.06,3,1.5.65.79.33a1.53,1.53,0,0,0,2-.81l.34-.79A1.55,1.55,0,0,0,899.26,433.88Z" transform="translate(-431.19 -108.3)"/><path class="cls-2" d="M899.08,433.49l-1.14-.49-1.15-.49-7-3a1.55,1.55,0,0,0-2,.81l-.33.79a1.53,1.53,0,0,0,.81,2l7,3,1.15.49,1.14.5a1.54,1.54,0,0,0,2-.81l.34-.79A1.54,1.54,0,0,0,899.08,433.49Z" transform="translate(-431.19 -108.3)"/><rect class="cls-8" x="901.61" y="436.25" width="5.57" height="3.94" rx="1.9" transform="translate(-185.74 -428.87) rotate(23.18)"/><rect class="cls-2" x="901.43" y="435.87" width="5.57" height="3.94" rx="1.9" transform="translate(-185.92 -428.82) rotate(23.17)"/><rect class="cls-8" x="908.66" y="439.28" width="5.57" height="3.94" rx="1.9" transform="translate(-183.98 -431.41) rotate(23.18)"/><rect class="cls-2" x="908.49" y="438.89" width="5.57" height="3.94" rx="1.9" transform="matrix(0.92, 0.39, -0.39, 0.92, -184.11, -431.4)"/><rect class="cls-8" x="915.72" y="442.3" width="5.57" height="3.94" rx="1.9" transform="translate(-182.2 -433.96) rotate(23.18)"/><rect class="cls-2" x="915.54" y="441.91" width="5.57" height="3.94" rx="1.9" transform="translate(-182.39 -433.9) rotate(23.18)"/><rect class="cls-5" x="4.73" y="281.42" width="12" height="12"/><rect class="cls-5" x="20.73" y="273.42" width="12.01" height="20.01"/><rect class="cls-5" x="36.73" y="265.42" width="12.01" height="28.01"/><rect class="cls-5" x="52.74" y="257.41" width="12" height="36.01"/><polygon class="cls-5" points="55.91 244.14 44.07 244.14 28.52 255.79 20.46 251.76 0.73 268.2 0.73 273.42 21 256.51 28.95 260.48 45.41 248.14 57.57 248.14 64.74 240.97 64.74 235.3 55.91 244.14"/><path class="cls-11" d="M824.66,215.93a24.9,24.9,0,1,1-18.74-29.81A24.9,24.9,0,0,1,824.66,215.93Z" transform="translate(-431.19 -108.3)"/><path class="cls-2" d="M795.55,231.6a21.75,21.75,0,1,1,26.05-16.37A21.78,21.78,0,0,1,795.55,231.6Zm9-39.56a18.82,18.82,0,1,0,14.17,22.54A18.84,18.84,0,0,0,804.57,192Z" transform="translate(-431.19 -108.3)"/><path class="cls-2" d="M795.24,220.57l-1.21-.64a9.09,9.09,0,0,1-2.16-1.58,10.92,10.92,0,0,1-1.71-2.21l2.6-2a7.45,7.45,0,0,0,1.92,2.48,6.62,6.62,0,0,0,2.68,1.29,5.13,5.13,0,0,0,3.33-.11,3.06,3.06,0,0,0,1.61-2.26v0a2.68,2.68,0,0,0-.12-1.8,3.11,3.11,0,0,0-1.1-1.24,11.85,11.85,0,0,0-1.92-1,.2.2,0,0,0-.08,0,.11.11,0,0,1-.07,0l-.15-.06-.15-.07a19.74,19.74,0,0,1-3-1.57,4.65,4.65,0,0,1-1.73-2.14,5.94,5.94,0,0,1-.09-3.64h0a7.58,7.58,0,0,1,1.61-3.42,5.05,5.05,0,0,1,2.84-1.62,9.66,9.66,0,0,1,4.09.18,10.35,10.35,0,0,1,2,.68,11.14,11.14,0,0,1,1.86,1.11,13.58,13.58,0,0,1,1.72,1.54l-2.39,2.09a9.38,9.38,0,0,0-1.9-1.59,6.56,6.56,0,0,0-2-.84,4.72,4.72,0,0,0-3.13.14,3.07,3.07,0,0,0-1.53,2.21h0a2.58,2.58,0,0,0,.16,1.87,3.44,3.44,0,0,0,1.21,1.25,21.3,21.3,0,0,0,2.19,1.16l.12,0,.12.07.14.06.13.06a14.15,14.15,0,0,1,2.72,1.61,4.83,4.83,0,0,1,1.56,2.24,6.42,6.42,0,0,1,0,3.53v0a6.92,6.92,0,0,1-1.61,3.29,5.08,5.08,0,0,1-2.91,1.52,10.83,10.83,0,0,1-4.23-.24ZM801,196.2l3,.69-6.11,26.83-3-.69Z" transform="translate(-431.19 -108.3)"/><path class="cls-11" d="M499.72,286.25l-11.57,7.95c-1.43,1-2.3,0-3.41-1.21a19,19,0,0,0-7.74-5.43c-3.71-1.49-7.89-3.39-10.48-7.17a17,17,0,1,1,28.12-19.18c2.54,3.69,2.82,8.07,2.88,12.25a18.94,18.94,0,0,0,2.3,9.17C500.56,284.1,501.15,285.26,499.72,286.25ZM471.43,257.5a16.11,16.11,0,0,0-4.14,22.36c2.45,3.57,6.47,5.4,10,6.83a20,20,0,0,1,8.09,5.67c1.22,1.35,1.49,1.55,2.19,1.07l11.57-8c.7-.48.61-.8-.21-2.42a20,20,0,0,1-2.4-9.58c-.06-4-.32-8.25-2.71-11.73A16.17,16.17,0,0,0,471.43,257.5Z" transform="translate(-431.19 -108.3)"/><path class="cls-11" d="M477.42,280.45a.51.51,0,1,0-.31,1l.45.1,14,10.69a.51.51,0,0,0,.6,0l.12-.11a.51.51,0,0,0-.1-.72l-12.94-9.89a5.64,5.64,0,0,0,3.58-1.88,2.88,2.88,0,0,0,.42-.71,3.94,3.94,0,0,0,2.15-.69,4.08,4.08,0,0,0,1.59-2.12,5.64,5.64,0,0,0,1.35-.33,5.39,5.39,0,0,0,3-2.34l4.53,15.45a.52.52,0,0,0,.64.35l.15-.07a.54.54,0,0,0,.2-.57l-5-16.94a1.52,1.52,0,0,1,0-.21.52.52,0,0,0-.48-.55.52.52,0,0,0-.55.48,3.85,3.85,0,0,1-2.88,3.44,5.53,5.53,0,0,1-.85.23,2.74,2.74,0,0,0-.55-1.57,2.46,2.46,0,0,0-2.13-1.26,1,1,0,0,0-.87.67,2.41,2.41,0,0,0,.68,2.26,2.63,2.63,0,0,0,1.64.94,3.18,3.18,0,0,1-2.43,1.79,3.42,3.42,0,0,0-.54-1.83,2.32,2.32,0,0,0-1.91-1.31,1.15,1.15,0,0,0-1,.64,2.33,2.33,0,0,0,.5,2.29,3,3,0,0,0,1.62,1.12L482,279A5,5,0,0,1,477.42,280.45Zm7.12-7.17a0,0,0,0,0,0,0h0c.16,0,.62.13,1.17.86a1.68,1.68,0,0,1,.34,1,1.58,1.58,0,0,1-1-.57C484.57,273.9,484.48,273.44,484.54,273.28ZM481,275.84l0,0s0,0,.07,0,.57.15,1,.82a2.41,2.41,0,0,1,.4,1.2,1.91,1.91,0,0,1-1.07-.71C480.9,276.42,480.9,276,481,275.84Z" transform="translate(-431.19 -108.3)"/><path class="cls-11" d="M491.31,273.45l4.39,15,.9-.62-4.74-16.15a1.52,1.52,0,0,1,0-.21.52.52,0,0,0-.48-.55.52.52,0,0,0-.55.48,3.47,3.47,0,0,1-1.09,2.38q-.07.71-.18,1.41A4.75,4.75,0,0,0,491.31,273.45Z" transform="translate(-431.19 -108.3)"/><path class="cls-11" d="M491.81,291.12l-6.4-4.89-.59.85,6.1,4.65Z" transform="translate(-431.19 -108.3)"/><path class="cls-11" d="M498.47,286.54l-9.62,6.61c-.55.38-.3,1.72.09,2.28s1.54,1.27,2.1.89l3.22-2.21-3.08,3.08c-.41.53-.48,1.06.06,1.47a1.12,1.12,0,0,0,1.36-.08c.1-.07.15-.22.23-.33l7.45-9.75a1.38,1.38,0,0,0-.16-1.69A1.34,1.34,0,0,0,498.47,286.54Z" transform="translate(-431.19 -108.3)"/><path class="cls-11" d="M503.36,293.69l-3.21,2.2,2.43-4a1.56,1.56,0,0,0-.38-1.95,1.31,1.31,0,0,0-1.8.12l-7.5,9.66a1.54,1.54,0,0,0,.23,1.79,1.47,1.47,0,0,0,1.72.37l.87-.6,3.17,1.33,4.76-3.27-.08-3.45.88-.61c.56-.38.85-.93.47-1.49S503.92,293.3,503.36,293.69Z" transform="translate(-431.19 -108.3)"/><path class="cls-11" d="M460,247a23.9,23.9,0,0,1,3.63,4.32c1.71,2.49,5.57-.16,3.86-2.65a29.27,29.27,0,0,0-4.48-5.26c-2.24-2-5.26,1.56-3,3.59Z" transform="translate(-431.19 -108.3)"/><path class="cls-11" d="M445.41,270.53a7.42,7.42,0,0,0,4.64.86,2.38,2.38,0,0,0,2.16-2.51,2.34,2.34,0,0,0-2.5-2.16,8.31,8.31,0,0,1-.86.07c-.16,0-.63,0,.08,0l-.36,0-.36-.08c-.46-.12.54.19.08,0a6,6,0,0,1-.89-.42,2.34,2.34,0,1,0-2,4.24Z" transform="translate(-431.19 -108.3)"/><path class="cls-11" d="M456.54,293.09l1.55-1.06a2.34,2.34,0,0,0-2.66-3.86l-1.54,1.06a2.34,2.34,0,1,0,2.65,3.86Z" transform="translate(-431.19 -108.3)"/><path class="cls-11" d="M473.12,301.51c-.15-1.21-.07-2.43-.22-3.64a2.39,2.39,0,0,0-2.51-2.16,2.36,2.36,0,0,0-2.17,2.51c.16,1.2.07,2.42.23,3.63a2.34,2.34,0,1,0,4.67-.34Z" transform="translate(-431.19 -108.3)"/><path class="cls-11" d="M489.92,242.78a14,14,0,0,1,1.14-4.12,2.34,2.34,0,0,0-4.24-2,18.52,18.52,0,0,0-1.51,5.27c-.55,3,4.06,3.83,4.61.85Z" transform="translate(-431.19 -108.3)"/><path class="cls-11" d="M505.45,259.47l3.6-2.47c2.49-1.71-.16-5.58-2.65-3.86l-3.61,2.47c-2.49,1.71.17,5.58,2.66,3.86Z" transform="translate(-431.19 -108.3)"/><path class="cls-11" d="M506.56,278.35a33.45,33.45,0,0,0,6.32.64,2.35,2.35,0,0,0,2.16-2.51,2.37,2.37,0,0,0-2.5-2.16,26.79,26.79,0,0,1-5.13-.58c-3-.55-3.83,4.06-.85,4.61Z" transform="translate(-431.19 -108.3)"/><path class="cls-5" d="M877.16,238.76l-.77-1.82a32.42,32.42,0,0,0,1.63-4.18l-2.36-2.3a32.08,32.08,0,0,0-4.19,1.67l-1.85-.74a33.51,33.51,0,0,0-1.86-4.08h-3.33c-.24,0-1.75,4.09-1.75,4.09l-1.86.75a33.51,33.51,0,0,0-4.26-1.59l-2.35,2.3c-.17.16,1.71,4.1,1.71,4.1l-.77,1.82A34.13,34.13,0,0,0,851,240.6v3.26c0,.23,4.17,1.71,4.17,1.71l.77,1.82a34.42,34.42,0,0,0-1.63,4.17l2.36,2.31a34.05,34.05,0,0,0,4.18-1.68l1.86.75a33.39,33.39,0,0,0,1.86,4.07h3.33c.24,0,1.75-4.08,1.75-4.08l1.86-.75a35.1,35.1,0,0,0,4.26,1.59l2.35-2.31c.17-.16-1.71-4.09-1.71-4.09l.76-1.82a34.34,34.34,0,0,0,4.17-1.83v-3.26A33.21,33.21,0,0,0,877.16,238.76Zm-6.14,3.4a4.86,4.86,0,1,1-4.86-4.76A4.81,4.81,0,0,1,871,242.16Z" transform="translate(-431.19 -108.3)"/><path class="cls-5" d="M886,258.93l-.45-1.07a19.81,19.81,0,0,0,1-2.45l-1.39-1.36a19.42,19.42,0,0,0-2.46,1l-1.09-.44a19.68,19.68,0,0,0-1.1-2.4h-2a19,19,0,0,0-1,2.4l-1.09.45a20.69,20.69,0,0,0-2.51-.94l-1.39,1.36a19.34,19.34,0,0,0,1,2.41L873.1,259a20,20,0,0,0-2.45,1.07v1.92a19.54,19.54,0,0,0,2.46,1l.45,1.07a19.81,19.81,0,0,0-1,2.45l1.39,1.36a20,20,0,0,0,2.46-1l1.09.45a19.46,19.46,0,0,0,1.09,2.39h2a17.69,17.69,0,0,0,1-2.4l1.09-.44a20.06,20.06,0,0,0,2.51.93l1.38-1.35a17.38,17.38,0,0,0-1-2.41l.44-1.07a20.11,20.11,0,0,0,2.45-1.08v-1.91A18.11,18.11,0,0,0,886,258.93Zm-3.6,2a2.87,2.87,0,1,1-2.87-2.8A2.84,2.84,0,0,1,882.44,260.94Z" transform="translate(-431.19 -108.3)"/><path class="cls-5" d="M892.6,226.6l-.46-1.08a19.81,19.81,0,0,0,1-2.45l-1.39-1.36a20,20,0,0,0-2.46,1l-1.09-.44a18.27,18.27,0,0,0-1.1-2.4h-1.95a17.69,17.69,0,0,0-1,2.4l-1.09.45a20.69,20.69,0,0,0-2.51-.94l-1.38,1.36a17.91,17.91,0,0,0,1,2.41l-.45,1.07a20,20,0,0,0-2.45,1.07v1.92a19.54,19.54,0,0,0,2.46,1l.45,1.07a19.36,19.36,0,0,0-1,2.46l1.39,1.35a20,20,0,0,0,2.46-1l1.09.44a18.16,18.16,0,0,0,1.1,2.39h2a19,19,0,0,0,1-2.4l1.1-.44a22.33,22.33,0,0,0,2.5.94l1.39-1.36a18.73,18.73,0,0,0-1-2.41l.45-1.07a20,20,0,0,0,2.45-1.07V227.6A19.41,19.41,0,0,0,892.6,226.6Zm-3.61,2a2.86,2.86,0,1,1-2.86-2.8A2.84,2.84,0,0,1,889,228.6Z" transform="translate(-431.19 -108.3)"/><path class="cls-12" d="M636,417.4l3-1a9.28,9.28,0,0,0,6.47-7.84l.17-1.77a15.52,15.52,0,0,1,5.31-10.24l26.34-23.12a17.92,17.92,0,0,0,.91-26.51h0a15.35,15.35,0,0,1-3-17.86l2.25-4.48a18,18,0,0,0-5-22.18h0A29.2,29.2,0,0,1,662,285.07l-2.88-15.89a50.84,50.84,0,0,0-19.12-31l-2.24-1.74a22,22,0,0,0-13.47-4.55h0a21.71,21.71,0,0,0-16.13,7l-2.61,2.9h0a25,25,0,0,0-20.92-2.55l-3.12,1a18.31,18.31,0,0,0-12.22,12.41l-13.67,50.06a10.67,10.67,0,0,1-4.71,6.21h0a10.6,10.6,0,0,0-4.88,6.95l-.91,4.69a23.54,23.54,0,0,0,4.12,18.3l6.74,9.32a23.2,23.2,0,0,1,4.16,17.37h0c-1.84,11.09,3.9,22.07,14.37,27.54l3.86,2a8.2,8.2,0,0,1,4.53,8l-1.16,11.54h0a39.42,39.42,0,0,0,11.14-25.54l.2-4.34a38.57,38.57,0,0,0-6.48-23.11h0l35.91,10.58,0,5.55a7,7,0,0,0,5.58,6.64h0a7.12,7.12,0,0,1,5.43,5.32l3.49,16.29A18.67,18.67,0,0,1,636,417.4Z" transform="translate(-431.19 -108.3)"/><path class="cls-13" d="M668.31,526.85a40.81,40.81,0,0,0-1.55,29h-25.3l-3.59-14,11.48-97.45,19.89-13.32-.94,1.47,3.67,75.3a40.88,40.88,0,0,1-3.47,18.56Z" transform="translate(-431.19 -108.3)"/><path class="cls-2" d="M714.35,462.81l-48.7-11-1,54.55,13.05,49.52H652.3l-28.93-9.27-11.94,9.27h-55l5.21-29.81A24.78,24.78,0,0,0,558.94,510l-22.12-40.14L513,490.49,571.75,530l-4.89,25.9-89.09-40.47c-13.51-5.72-17.68-24-8.16-35.71l44.22-54.46a21.17,21.17,0,0,0,4.66-13.34,21.14,21.14,0,0,1,4.84-13.55l23.2-27.76c10.72-12.83,27.38-17.91,42.81-13.06l75.39-1.39c14.69,4.62,68.41,112.19,68,128.55Z" transform="translate(-431.19 -108.3)"/><path class="cls-14" d="M609.68,431.09l-48-74.93a51.58,51.58,0,0,1,7,1.39l68.57,18.85Z" transform="translate(-431.19 -108.3)"/><path class="cls-15" d="M636,417.4l3-1a9.28,9.28,0,0,0,6.47-7.84l.17-1.77a15.52,15.52,0,0,1,5.31-10.24l26.34-23.12a17.92,17.92,0,0,0,.91-26.51h0a15.35,15.35,0,0,1-3-17.86l2.25-4.48a18,18,0,0,0-5-22.18h0A29.2,29.2,0,0,1,662,285.07l-2.88-15.89a50.84,50.84,0,0,0-19.12-31l-2.24-1.74a22,22,0,0,0-13.47-4.55h0a21.71,21.71,0,0,0-16.13,7l-2.61,2.9h0a25,25,0,0,0-20.92-2.55l-3.12,1a18.31,18.31,0,0,0-12.22,12.41l-13.67,50.06a10.67,10.67,0,0,1-4.71,6.21h0a10.6,10.6,0,0,0-4.88,6.95l-.91,4.69a23.54,23.54,0,0,0,4.12,18.3l6.74,9.32a23.2,23.2,0,0,1,4.16,17.37h0c-1.84,11.09,3.9,22.07,14.37,27.54l3.86,2a8.2,8.2,0,0,1,4.53,8l-1.16,11.54h0a39.42,39.42,0,0,0,11.14-25.54l.2-4.34a38.57,38.57,0,0,0-6.48-23.11h0l35.91,10.58,0,5.55a7,7,0,0,0,5.58,6.64h0a7.12,7.12,0,0,1,5.43,5.32l3.49,16.29A18.67,18.67,0,0,1,636,417.4Z" transform="translate(-431.19 -108.3)"/><path class="cls-13" d="M643.6,555.9h-2.87l-33.09-9.27,25.71-13.2c5.37-2.76,11.88,1.14,11.44,6.85Z" transform="translate(-431.19 -108.3)"/><path class="cls-15" d="M508.65,471.42a1.73,1.73,0,0,0,1.09-.37l19.75-15.47a58.78,58.78,0,0,1,20-10.17l6.44-1.86a1.57,1.57,0,0,0,1.12-2,1.72,1.72,0,0,0-2.12-1.05l-6.44,1.86a62.18,62.18,0,0,0-21.16,10.78l-19.75,15.47a1.51,1.51,0,0,0-.21,2.23A1.72,1.72,0,0,0,508.65,471.42Z" transform="translate(-431.19 -108.3)"/><path class="cls-15" d="M509,457.52a1.46,1.46,0,0,0,1.15-.58l3.1-4A33,33,0,0,0,520,432.83V411.92a1.49,1.49,0,1,0-3,0v20.91a29.62,29.62,0,0,1-6.1,18.08l-3.1,4a1.66,1.66,0,0,0,.2,2.24A1.42,1.42,0,0,0,509,457.52Z" transform="translate(-431.19 -108.3)"/><path class="cls-15" d="M513,492.08a1.48,1.48,0,0,0,1.27-.77,1.65,1.65,0,0,0-.5-2.18L500,480.19a17.49,17.49,0,0,0-17.26-1.06,1.65,1.65,0,0,0-.73,2.11,1.44,1.44,0,0,0,2,.78,14.66,14.66,0,0,1,14.49.89l13.85,8.94A1.47,1.47,0,0,0,513,492.08Z" transform="translate(-431.19 -108.3)"/><path class="cls-13" d="M654.88,508a1.83,1.83,0,0,0,.81-.2,1.53,1.53,0,0,0,.68-2.15l-22.51-38.54A23.76,23.76,0,0,1,631.57,448a1.57,1.57,0,0,0-1.17-2,1.72,1.72,0,0,0-2.1,1.1,26.72,26.72,0,0,0,2.58,21.45l22.5,38.53A1.73,1.73,0,0,0,654.88,508Z" transform="translate(-431.19 -108.3)"/><path class="cls-16" d="M598.36,390.45l7.41.81c8.32.91,15.92-4.71,16.89-12.48l8.1-64.65c1-7.77-5-14.88-13.36-15.79l-7.4-.81c-8.32-.91-15.93,4.71-16.9,12.48L585,374.66C584,382.43,590,389.54,598.36,390.45Z" transform="translate(-431.19 -108.3)"/><path class="cls-14" d="M598.36,390.45l7.41.81c8.32.91,15.92-4.71,16.89-12.48l8.1-64.65c1-7.77-5-14.88-13.36-15.79l-7.4-.81c-8.32-.91-15.93,4.71-16.9,12.48L585,374.66C584,382.43,590,389.54,598.36,390.45Z" transform="translate(-431.19 -108.3)"/><path class="cls-17" d="M589.47,339l2-15.89c5.51,6.53,12.35,18.8,18.22,18.8a37.74,37.74,0,0,0,18.19-4.7h0l-4.21,33.57C607.5,367.56,589.88,351.63,589.47,339Z" transform="translate(-431.19 -108.3)"/><path class="cls-14" d="M573.05,298.18c0,25.15,24.39,47.26,38.47,47.26,16.35,0,38.48-22.11,38.48-47.26s-17.23-45.56-38.48-45.56S573.05,273,573.05,298.18Z" transform="translate(-431.19 -108.3)"/><path class="cls-18" d="M614.15,327.37c8.28.2,9.21-5.22,9.21-5.22l-10.48-2.79.14-6.69,5.65.6a2.48,2.48,0,0,0,2.55-2.83l-3-16.08c-1.06-5.61,4.89-9.29,4.89-9.29,14.67-14.3-7.65-29.37-7.65-29.37l-.73-2.91c19.76,1.91,35.3,21.5,35.3,45.39,0,25.15-22.13,47.26-38.48,47.26-.32,0-.65,0-1,0C619.23,337.61,614.15,327.37,614.15,327.37Z" transform="translate(-431.19 -108.3)"/><path class="cls-19" d="M625.21,322.41s-8.89-8.17-21-.68C604.22,321.73,615.29,334.06,625.21,322.41Z" transform="translate(-431.19 -108.3)"/><path class="cls-15" d="M549.86,339.74l-.6-.83a23.54,23.54,0,0,1-4.12-18.3l.91-4.69a10.6,10.6,0,0,1,4.88-6.95h0a10.67,10.67,0,0,0,4.71-6.21l13.67-50.06a17.15,17.15,0,0,1,1.2-3.13,18.64,18.64,0,0,1,11-9.28l3.12-1a25,25,0,0,1,6.72-1.19c.45,0,.91,0,1.36,0a24.32,24.32,0,0,1,2.7.18,25.67,25.67,0,0,1,4,.82,24.2,24.2,0,0,1,5,2.07l1.17.69-2.84,16.69-9.15-2.8a13.48,13.48,0,0,0-12.84,2.7l-.35.3a17.58,17.58,0,0,0-5.89,11.15l-1.82,15.95a35.28,35.28,0,0,1-4.65,13.9h0a56.53,56.53,0,0,0-7.8,28.56v.38a35.66,35.66,0,0,0,5.41,18.83l.38.63a35.85,35.85,0,0,1,5.38,17.31l.39,8.91a19,19,0,0,0,6.39,13.29h0A18.73,18.73,0,0,1,584,406.39l-2.21,8.36,1.16-11.54a8.2,8.2,0,0,0-4.53-8l-1.08-.57-2.78-1.45a28.7,28.7,0,0,1-6.15-4.34,25.75,25.75,0,0,1-8.22-23.2h0a23.14,23.14,0,0,0,.22-5.69c-.07-.76-.17-1.51-.31-2.25a23.67,23.67,0,0,0-4.07-9.43Z" transform="translate(-431.19 -108.3)"/><path class="cls-15" d="M560.16,365.6h0c-1.84,11.09,3.9,22.07,14.37,27.54l3.86,2a8.2,8.2,0,0,1,4.53,8l-1.16,11.54h0a39.42,39.42,0,0,0,11.14-25.54l.2-4.34a38.57,38.57,0,0,0-6.48-23.11h0" transform="translate(-431.19 -108.3)"/><path class="cls-15" d="M560.16,365.6,571.29,364c0,.48.09,1,.11,1.44l.39,8.91a19,19,0,0,0,6.39,13.29A18.73,18.73,0,0,1,584,406.39l-2.21,8.36,1.16-11.54c0-.2,0-.41,0-.61a8,8,0,0,0-.07-1.21,7.44,7.44,0,0,0-.4-1.61,7.16,7.16,0,0,0-.41-.95l-.28-.5c-.13-.21-.27-.42-.42-.62l-.2-.27a8.58,8.58,0,0,0-2.79-2.28l-2.94-1.54-.92-.48h0c-.59-.32-1.17-.65-1.73-1-.37-.23-.72-.47-1.07-.71l-.52-.35c-.45-.32-.89-.66-1.32-1l-.13-.1c-.47-.38-.92-.78-1.36-1.18h0a27.31,27.31,0,0,1-4.17-4.85l-.06-.1c-.27-.4-.53-.82-.77-1.23l-.14-.24a25,25,0,0,1-1.76-3.74c-.07-.17-.14-.35-.2-.52-.12-.33-.22-.66-.33-1s-.15-.52-.22-.78-.17-.6-.24-.91-.14-.67-.21-1-.1-.49-.14-.74c-.09-.58-.17-1.15-.22-1.73,0-.2,0-.41,0-.61,0-.42,0-.85-.06-1.28v-.67c0-.43,0-.87,0-1.3,0-.2,0-.4,0-.59.06-.63.13-1.26.24-1.89Z" transform="translate(-431.19 -108.3)"/><path class="cls-15" d="M641.56,404.35v-5.23A21.44,21.44,0,0,1,645.39,387l3.05-4.42a21.74,21.74,0,0,0,3.89-12.35,22.11,22.11,0,0,0-7.15-16.13A13.8,13.8,0,0,1,640.71,344a22.38,22.38,0,0,1,3.34-11.72l3.59-5.84a19.93,19.93,0,0,0-1.92-23.6l-.25-.29A39.19,39.19,0,0,1,636,277.08V256.34a11.17,11.17,0,0,0-3.52-8.08l-1.12-1.08a12.84,12.84,0,0,0-8.87-3.49h0a12.78,12.78,0,0,0-9.24,3.86l-10.48,11,2.84-16.69,2.61-2.9a21.71,21.71,0,0,1,16.13-7c.62,0,1.23,0,1.84.08s1.21.12,1.81.22a22.6,22.6,0,0,1,5.19,1.52l.05,0a21.63,21.63,0,0,1,3.11,1.67c.5.32,1,.67,1.47,1l2.24,1.74a52.11,52.11,0,0,1,14.23,16.89c.62,1.18,1.2,2.38,1.72,3.61.44,1,.83,2.05,1.2,3.09a49.5,49.5,0,0,1,2,7.4l1.05,5.8,1.87,10.27a25.92,25.92,0,0,0,1.66,5.55c.06.16.13.32.2.48s.05.11.07.17a29.87,29.87,0,0,0,8.39,10.95h0c.25.2.47.42.7.63s.4.34.59.53.37.39.55.58.36.37.53.57.34.41.5.62.33.39.48.59l.44.66c.14.21.28.41.41.62s.26.46.39.69.25.42.36.64l.32.71c.1.23.21.44.3.67s.18.49.27.73.17.45.24.68.13.5.2.75.13.46.18.69.1.52.14.77.09.47.12.7,0,.52.08.78.05.47.06.71,0,.52,0,.79,0,.47,0,.7,0,.54-.06.81,0,.46-.05.69-.09.54-.14.81-.06.45-.11.68-.14.55-.21.83-.1.43-.17.65-.19.58-.3.88-.13.39-.2.58c-.17.41-.35.81-.55,1.22l-.1.22-1.16,2.34-1.08,2.14-.06.15a15.23,15.23,0,0,0,3,17.65c.25.25.47.52.7.77s.46.48.66.73.39.53.58.79.39.5.56.76.33.56.5.84.32.52.46.79.27.58.4.88.26.53.37.81.21.61.31.91.2.55.28.83.15.63.22.94.13.55.18.83.08.65.12,1,.08.55.1.82,0,.66,0,1,0,.54,0,.81-.05.66-.08,1,0,.53-.07.8-.13.67-.19,1-.09.52-.15.77-.2.69-.3,1-.13.48-.22.72-.28.69-.42,1-.17.45-.28.67-.37.71-.56,1.06c-.11.19-.2.39-.32.58-.23.38-.49.74-.75,1.11-.11.15-.2.31-.31.46-.31.4-.65.79-1,1.18l-.26.3c-.44.48-.92.94-1.42,1.39l-15.6,13.69-10.74,9.43c-.38.33-.74.68-1.09,1.05a15.43,15.43,0,0,0-4.22,9.19l-.17,1.77a9,9,0,0,1-3.92,6.56l-.17.12A10.11,10.11,0,0,1,639,416.4l-3,1h0A18.26,18.26,0,0,0,641.56,404.35Z" transform="translate(-431.19 -108.3)"/><path class="cls-15" d="M602.73,258.52s14.44-8.12,33.23,3.16c0,0-3.56-12.76-16.61-13.15l-10.68,3.78Z" transform="translate(-431.19 -108.3)"/><path class="cls-15" d="M602.73,258.52s-21.46.67-29.68,24.11l6.25-19,7.44-5.1,8.68-2.24Z" transform="translate(-431.19 -108.3)"/><path class="cls-20" d="M628.83,295.43a2.86,2.86,0,1,0,2.85-2.67A2.76,2.76,0,0,0,628.83,295.43Z" transform="translate(-431.19 -108.3)"/><path class="cls-20" d="M624,287.81c3-1.29,12.32-4.89,20.31-2.48,0,0-6-5.16-21.25-.26,0,0-1.37.39-.56,2.21A1.15,1.15,0,0,0,624,287.81Z" transform="translate(-431.19 -108.3)"/><path class="cls-20" d="M617.58,323.21a57.68,57.68,0,0,0,9.11-.61.39.39,0,0,0,.33-.47.41.41,0,0,0-.5-.31c-.09,0-9.87,1.74-23.71-.73a.42.42,0,0,0-.49.32.39.39,0,0,0,.33.46A85.17,85.17,0,0,0,617.58,323.21Z" transform="translate(-431.19 -108.3)"/><path class="cls-14" d="M625.12,300.18s7.4,3.91,14.37,0c0,0,.42,12.54-7.18,13.64C632.31,313.82,625.82,314,625.12,300.18Z" transform="translate(-431.19 -108.3)"/><path class="cls-20" d="M624.86,295.82a.43.43,0,0,0,.27-.08,13.41,13.41,0,0,1,14.4-1,.44.44,0,0,0,.58-.13.38.38,0,0,0-.13-.55c-.08,0-7.92-4.5-15.38,1.07a.37.37,0,0,0-.07.56A.45.45,0,0,0,624.86,295.82Z" transform="translate(-431.19 -108.3)"/><path class="cls-18" d="M606.45,287.33s1.32,4-3,6.7a9.9,9.9,0,0,0-4.67-2.34s.1-7.75-13.44-7.83C585.3,283.86,594.7,280.76,606.45,287.33Z" transform="translate(-431.19 -108.3)"/><path class="cls-20" d="M594.82,294.36a2.86,2.86,0,1,0,2.86-2.67A2.76,2.76,0,0,0,594.82,294.36Z" transform="translate(-431.19 -108.3)"/><path class="cls-20" d="M604.91,287.78c-2.87-1.46-12-5.57-20.11-3.61,0,0,6.27-4.82,21.23.93,0,0,1.34.47.42,2.23A1.17,1.17,0,0,1,604.91,287.78Z" transform="translate(-431.19 -108.3)"/><path class="cls-20" d="M604.28,295.12a.42.42,0,0,0,.3-.12.37.37,0,0,0,0-.56,14.47,14.47,0,0,0-15.25-2.14.39.39,0,0,0-.2.53.45.45,0,0,0,.57.19A13.54,13.54,0,0,1,604,295,.46.46,0,0,0,604.28,295.12Z" transform="translate(-431.19 -108.3)"/><polygon class="cls-15" points="145.74 163.76 145.74 199.51 140.56 190.24 144.12 166.72 145.74 163.76"/><path class="cls-21" d="M778.16,558.74h-223l2.71-8.44a4.1,4.1,0,0,1,3.9-2.84H778.16Z" transform="translate(-431.19 -108.3)"/><path class="cls-21" d="M779,558.74H561l19.79-155.06a9.57,9.57,0,0,1,9.5-8.36H799.81Z" transform="translate(-431.19 -108.3)"/><path class="cls-20" d="M781.91,558.74H575.71a3.23,3.23,0,0,1-3.2-3.63L592.27,400.4a5.81,5.81,0,0,1,5.77-5.08H803.32a6.69,6.69,0,0,1,6.63,7.53L791.08,550.67A9.25,9.25,0,0,1,781.91,558.74Z" transform="translate(-431.19 -108.3)"/><ellipse class="cls-21" cx="697.94" cy="476.74" rx="18.29" ry="15.36" transform="matrix(0.86, -0.52, 0.52, 0.86, -577.12, 320.57)"/><ellipse class="cls-22" cx="699.69" cy="476.98" rx="18.29" ry="15.36" transform="translate(-576.99 321.5) rotate(-31.09)"/><path class="cls-23" d="M814.75,514.8v19a15.35,15.35,0,0,0,.17,2.27c.08.49.18,1,.3,1.44a14.83,14.83,0,0,0,1.69,4c.25.41.52.8.8,1.18h0a15.71,15.71,0,0,0,3,3h0c.37.27.77.54,1.18.8a15.23,15.23,0,0,0,4,1.69c.48.12,1,.21,1.45.29a15.35,15.35,0,0,0,2.27.17h26.27a14.91,14.91,0,0,0,14.05-10,15.45,15.45,0,0,0,.67-2.76,13.77,13.77,0,0,0,.16-2.15v-19a14.9,14.9,0,0,0-14.88-14.88H829.64a14.81,14.81,0,0,0-10.52,4.36,16.69,16.69,0,0,0-1.41,1.62c-.28.39-.55.78-.8,1.19a14.71,14.71,0,0,0-1.69,4c-.12.47-.22,1-.3,1.46A15.11,15.11,0,0,0,814.75,514.8Zm6,0a8.94,8.94,0,0,1,8.93-8.93h26.27a9,9,0,0,1,8.93,8.93v19a8.95,8.95,0,0,1-8.93,8.93H829.64a8.94,8.94,0,0,1-8.93-8.93Z" transform="translate(-431.19 -108.3)"/><path class="cls-24" d="M836.9,495.15V556a6.05,6.05,0,0,0,6,6h35.68a6,6,0,0,0,2.34-.48,6.25,6.25,0,0,0,1-.55c.17-.11.32-.23.48-.35a6.36,6.36,0,0,0,1.71-2.3h0a6,6,0,0,0,.45-1.73c0-.2,0-.41,0-.62V495.15a5.84,5.84,0,0,0-.08-.93H837A5.84,5.84,0,0,0,836.9,495.15Z" transform="translate(-431.19 -108.3)"/><path class="cls-25" d="M814.75,514.8v19a15.35,15.35,0,0,0,.17,2.27c.08.49.18,1,.3,1.44a14.83,14.83,0,0,0,1.69,4,12.89,12.89,0,0,0,.8,1.18h0a15.43,15.43,0,0,0,3,3h0c.38.28.77.55,1.18.8a15.23,15.23,0,0,0,4,1.69c.48.12,1,.21,1.45.29a15.35,15.35,0,0,0,2.27.17h7.26V556a6.05,6.05,0,0,0,6,6h35.68a6,6,0,0,0,2.34-.48,6.25,6.25,0,0,0,1-.55c.17-.11.32-.23.48-.35a6.06,6.06,0,0,0,1.71-2.3h0a6,6,0,0,0,.45-1.73c0-.2,0-.41,0-.62v-17.3H883A28.68,28.68,0,0,1,870.63,536a27.94,27.94,0,0,1-5.79-3.61c-4.23-3.37-7.51-5.94-9.33-11.33l-5.11-15.16-2-5.95-1.92-5.7H837a5.84,5.84,0,0,0-.08.93v4.77h-7.26a14.81,14.81,0,0,0-10.52,4.36,14.62,14.62,0,0,0-1.41,1.62,10.75,10.75,0,0,0-.8,1.19,14.71,14.71,0,0,0-1.69,4c-.12.47-.22,1-.3,1.46A15.11,15.11,0,0,0,814.75,514.8Zm6,19v-19a8.94,8.94,0,0,1,8.93-8.93h7.26v36.88h-7.26A8.94,8.94,0,0,1,820.71,533.82Z" transform="translate(-431.19 -108.3)"/><path class="cls-2" d="M873.52,486a2,2,0,0,0,2-2,9.83,9.83,0,0,0-.6-3.58,7.1,7.1,0,0,1,0-4.64,11,11,0,0,0,0-7.17,5.91,5.91,0,0,1-.39-2.31,2,2,0,1,0-4,0,9.88,9.88,0,0,0,.6,3.58,7.07,7.07,0,0,1,0,4.63,9.94,9.94,0,0,0-.6,3.59,9.83,9.83,0,0,0,.6,3.58,6,6,0,0,1,.39,2.32A2,2,0,0,0,873.52,486Z" transform="translate(-431.19 -108.3)"/><path class="cls-2" d="M860.3,486a2,2,0,0,0,2-2,9.83,9.83,0,0,0-.6-3.58,7.1,7.1,0,0,1,0-4.64,11,11,0,0,0,0-7.17,5.91,5.91,0,0,1-.39-2.31,2,2,0,1,0-4,0,9.88,9.88,0,0,0,.6,3.58,7.07,7.07,0,0,1,0,4.63,9.94,9.94,0,0,0-.6,3.59,9.83,9.83,0,0,0,.6,3.58,6,6,0,0,1,.39,2.32A2,2,0,0,0,860.3,486Z" transform="translate(-431.19 -108.3)"/><path class="cls-2" d="M847.08,486a2,2,0,0,0,2-2,9.83,9.83,0,0,0-.6-3.58,7.1,7.1,0,0,1,0-4.64,11,11,0,0,0,0-7.17,6.1,6.1,0,0,1-.39-2.31,2,2,0,1,0-4,0,9.88,9.88,0,0,0,.6,3.58,7.07,7.07,0,0,1,0,4.63,9.94,9.94,0,0,0-.6,3.59,9.83,9.83,0,0,0,.6,3.58,6,6,0,0,1,.39,2.32A2,2,0,0,0,847.08,486Z" transform="translate(-431.19 -108.3)"/><rect class="cls-26" x="19.65" y="425.91" width="90.09" height="23.94"/><polygon class="cls-21" points="22.25 449.08 22.25 427.82 111.32 427.82 111.32 425.91 17.11 425.91 17.11 450.99 111.32 450.99 111.32 449.08 22.25 449.08"/><rect class="cls-2" x="23.77" y="430.15" width="85.97" height="15.94"/><rect class="cls-26" x="7.91" y="400.84" width="90.09" height="23.94"/><polygon class="cls-20" points="10.51 424 10.51 402.75 99.59 402.75 99.59 400.84 5.38 400.84 5.38 425.91 99.59 425.91 99.59 424 10.51 424"/><rect class="cls-2" x="12.03" y="405.08" width="85.97" height="15.94"/><rect class="cls-26" x="20.97" y="375.76" width="90.09" height="23.94"/><polygon class="cls-21" points="23.57 398.93 23.57 377.67 112.65 377.67 112.65 375.76 18.44 375.76 18.44 400.84 112.65 400.84 112.65 398.93 23.57 398.93"/><rect class="cls-2" x="25.09" y="380" width="85.97" height="15.94"/><polygon class="cls-26" points="92.63 374.63 2.54 374.63 2.54 350.69 91.84 355.83 92.63 374.63"/><polygon class="cls-21" points="5.13 373.85 5.13 352.6 93.42 357.74 93.42 355.83 0 350.69 0 375.76 94.21 375.76 94.21 373.85 5.13 373.85"/><polygon class="cls-2" points="92.63 370.87 6.66 370.87 6.66 354.93 91.84 360.07 92.63 370.87"/><rect class="cls-15" x="14.52" y="450.7" width="490.97" height="7.61"/><polygon class="cls-21" points="232.62 92.04 172.56 129.44 98.46 122.58 159.23 80.24 232.62 92.04"/><path class="cls-20" d="M648.61,247.86l-8.16-33.76s-5.1-9.26-44.49-.68c0,0-27.79,5.29-39.48,20l8.39,34.66s11.9-13.84,38.36-20.71C603.23,247.4,630.92,239.75,648.61,247.86Z" transform="translate(-431.19 -108.3)"/><path class="cls-24" d="M536.83,276.33l.18-.07a.93.93,0,0,0,.44-1.24c-6.46-13.49-.47-24.2-.4-24.3,7.61-9.21.43-20.95.36-21.06a.93.93,0,1,0-1.57,1c.06.1,6.54,10.73-.31,19-.36.59-6.63,11.78.24,26.15A.94.94,0,0,0,536.83,276.33Z" transform="translate(-431.19 -108.3)"/><path class="cls-27" d="M534.42,278.18a3.4,3.4,0,1,0,2.5-4.11A3.39,3.39,0,0,0,534.42,278.18Z" transform="translate(-431.19 -108.3)"/><path class="cls-24" d="M548.26,291.27a.92.92,0,0,0,.61-.48.94.94,0,0,0-.41-1.25c-.06,0-5.85-3-6.11-7.94a.93.93,0,0,0-1.85.1c.32,6.05,6.85,9.36,7.13,9.51A.92.92,0,0,0,548.26,291.27Z" transform="translate(-431.19 -108.3)"/><path class="cls-24" d="M544.8,294.22a.94.94,0,0,0,.55-.37.93.93,0,0,0-.23-1.29c-.06,0-5.34-3.82-4.87-8.77a.92.92,0,1,0-1.84-.17c-.58,6,5.39,10.28,5.64,10.46A1,1,0,0,0,544.8,294.22Z" transform="translate(-431.19 -108.3)"/><path class="cls-24" d="M540.38,295.19a.9.9,0,0,0,.47-.27.94.94,0,0,0-.06-1.32s-4.79-4.47-3.68-9.32a.93.93,0,0,0-.7-1.11.92.92,0,0,0-1.1.7c-1.36,5.91,4,10.89,4.23,11.1A.91.91,0,0,0,540.38,295.19Z" transform="translate(-431.19 -108.3)"/><path class="cls-24" d="M544.32,286.27,535.76,289a11.32,11.32,0,0,1,.45-10S540.66,275.08,544.32,286.27Z" transform="translate(-431.19 -108.3)"/><rect class="cls-2" x="666.39" y="180.44" width="85.67" height="64.48" transform="translate(-160.68 700.84) rotate(-70.36)"/><rect class="cls-28" x="718.85" y="206.51" width="3.74" height="22.07" transform="translate(-157.63 714.9) rotate(-70.36)"/><rect class="cls-28" x="716.56" y="212.95" width="3.74" height="22.07" transform="translate(-165.21 717.02) rotate(-70.36)"/><rect class="cls-28" x="714.26" y="219.38" width="3.74" height="22.07" transform="translate(-172.7 719.19) rotate(-70.37)"/><rect class="cls-28" x="711.96" y="225.82" width="3.74" height="22.07" transform="translate(-180.46 721.16) rotate(-70.35)"/><rect class="cls-28" x="693.49" y="197.46" width="3.73" height="22.07" transform="translate(-165.93 685.01) rotate(-70.36)"/><rect class="cls-28" x="691.19" y="203.9" width="3.74" height="22.07" transform="translate(-173.52 687.12) rotate(-70.36)"/><rect class="cls-28" x="688.9" y="210.33" width="3.73" height="22.07" transform="translate(-181.02 689.29) rotate(-70.37)"/><rect class="cls-28" x="686.6" y="216.76" width="3.74" height="22.07" transform="translate(-188.8 691.25) rotate(-70.35)"/><polygon class="cls-24" points="294.37 108.55 290.09 100.19 280.94 102.29 292 78.55 305.43 84.81 294.37 108.55"/><path class="cls-11" d="M740,195.8a11.32,11.32,0,1,1-5.48-15A11.32,11.32,0,0,1,740,195.8Z" transform="translate(-431.19 -108.3)"/><path class="cls-11" d="M893,280.57H732.24A19.51,19.51,0,0,0,712.78,300v46.65a19.51,19.51,0,0,0,19.46,19.46h0a2.08,2.08,0,0,1,1.9,2.93l-5,11.3a2.08,2.08,0,0,0,3.06,2.58l24.42-16.45a2,2,0,0,1,1.16-.36H893a19.51,19.51,0,0,0,19.46-19.46V300A19.51,19.51,0,0,0,893,280.57Z" transform="translate(-431.19 -108.3)"/><path class="cls-1" d="M494.39,196l-23.28-33.29L533.52,130l.47,61.45ZM473.7,163.3l21.53,30.79,37-4.23-.42-57Z" transform="translate(-431.19 -108.3)"/><path class="cls-1" d="M472.22,163.84l.37-1.72,2.88.62-.37,1.72Zm9.77,2.09.37-1.72,6.88,1.47-.36,1.72Zm13.77,2.94.37-1.72,6.89,1.47-.37,1.72Zm13.78,2.94.36-1.72L514,171l.6-1.34,1.61.72L515,173Zm7.9-8.62,2.88-6.43,1.61.72-2.88,6.43Zm5.77-12.85,2.88-6.43,1.61.72-2.89,6.43ZM529,137.49l2.88-6.43,1.61.72-2.88,6.43Z" transform="translate(-431.19 -108.3)"/><path class="cls-1" d="M532.48,191.27l-5-5,1.24-1.24,5,5Zm-10-10-5-5,1.25-1.24,5,5Z" transform="translate(-431.19 -108.3)"/><path class="cls-29" d="M494.81,195" transform="translate(-431.19 -108.3)"/><rect class="cls-1" x="476.72" y="162.35" width="74.01" height="1.76" transform="matrix(0.51, -0.86, 0.86, 0.51, -320.41, 412.96)"/><path class="cls-1" d="M483.94,138.65c1-1.79,2.93-1.9,6.82-.1.3-.76,0-1.49-1.08-2.06a6.25,6.25,0,0,0-2.83-.57v-2a8.68,8.68,0,0,1,4.32.93c2.24,1.21,3,3.1,1.65,5.55L490.36,145l-1.93-1,.31-1-.06,0a5.47,5.47,0,0,1-3.41-.43A2.73,2.73,0,0,1,483.94,138.65Zm5.34,2.63L490,140c-2.41-1.15-3.32-1-3.68-.3-.28.51,0,1,.69,1.36A3.43,3.43,0,0,0,489.28,141.28Z" transform="translate(-431.19 -108.3)"/><path class="cls-1" d="M467,193.45l-.06,0-.67.76-1.85-1,6.06-11.26,2.37,1.27L471.35,186l-.76,1.21.06,0a3.61,3.61,0,0,1,2.67.26c2,1.07,2.35,3.32,1,5.77-1.48,2.75-4,3.42-5.78,2.46A3.44,3.44,0,0,1,467,193.45Zm4.93-1.49c.77-1.43.69-2.4-.32-2.94a2.23,2.23,0,0,0-1.86-.05L468,192.19a2.41,2.41,0,0,0,1.09,1.27C470,193.92,471,193.61,471.91,192Z" transform="translate(-431.19 -108.3)"/><path class="cls-1" d="M521.76,204.15c1.43-2.66,4.41-3,6.86-1.71a5,5,0,0,1,2.41,2.7l-1.88.88a3.38,3.38,0,0,0-1.43-1.6,2.47,2.47,0,0,0-3.54,1,2.42,2.42,0,0,0,1,3.47,4.17,4.17,0,0,0,2.51.37l.15,2a5.85,5.85,0,0,1-3.91-.59C521.44,209.36,520.33,206.79,521.76,204.15Z" transform="translate(-431.19 -108.3)"/><path class="cls-1" d="M871.61,196a28.26,28.26,0,1,1,28.26-28.26A28.3,28.3,0,0,1,871.61,196Zm0-55.23a27,27,0,1,0,27,27A27,27,0,0,0,871.61,140.8Z" transform="translate(-431.19 -108.3)"/><rect class="cls-1" x="399.37" y="56.88" width="93.22" height="1.28"/><rect class="cls-1" x="898.48" y="165.82" width="1.28" height="0.19" transform="translate(-410.47 311.31) rotate(-26.57)"/><polygon class="cls-1" points="467.02 64.63 463.77 57.8 464.93 57.25 468.25 64.21 468.25 64.35 467.6 64.36 467.02 64.63"/><rect class="cls-1" x="894.12" y="165.21" width="1.28" height="12.79" transform="translate(-418.23 292.39) rotate(-25.42)"/><rect class="cls-1" x="891.48" y="165.01" width="1.28" height="16.98" transform="translate(-419.29 291.46) rotate(-25.42)"/><rect class="cls-1" x="888.69" y="164.84" width="1.28" height="20.47" transform="translate(-420.26 290.33) rotate(-25.42)"/><rect class="cls-1" x="885.78" y="164.7" width="1.28" height="23.42" transform="translate(-421.04 289.49) rotate(-25.43)"/><rect class="cls-1" x="882.78" y="164.58" width="1.28" height="25.91" transform="translate(-421.86 288.13) rotate(-25.42)"/><rect class="cls-1" x="879.69" y="164.48" width="1.28" height="28.01" transform="translate(-422.58 286.84) rotate(-25.42)"/><rect class="cls-1" x="878.56" y="173.43" width="1.28" height="20.23" transform="translate(-424.84 286.95) rotate(-25.43)"/><rect class="cls-1" x="877.08" y="181.22" width="1.28" height="13.32" transform="translate(-426.78 286.98) rotate(-25.44)"/><rect class="cls-1" x="875.52" y="188.99" width="1.28" height="6.06" transform="translate(-428.88 286.02) rotate(-25.4)"/><rect class="cls-1" x="443.03" y="17.08" width="1.28" height="82.21"/><polygon class="cls-1" points="445.43 21.26 443.74 18.44 442.55 20.99 441.39 20.45 443.6 15.71 446.53 20.6 445.43 21.26"/><polygon class="cls-1" points="490.47 60.08 489.81 58.98 492.63 57.3 490.08 56.11 490.63 54.94 495.36 57.16 490.47 60.08"/><path class="cls-1" d="M564.88,170.43c-.76-2.59,1-4.54,6.35-6.48-.42-1-1.38-1.4-2.94-.94a8.36,8.36,0,0,0-3.2,2.12l-1.88-1.89a11.3,11.3,0,0,1,4.94-3.15c3.25-1,5.72.15,6.76,3.69l1.94,6.6-2.8.83-.63-1.23-.08,0a7.36,7.36,0,0,1-3.63,2.79A3.65,3.65,0,0,1,564.88,170.43Zm7.52-2.52-.56-1.89c-3.35,1.17-4,2.18-3.75,3.16.22.75.95.92,1.92.64A4.57,4.57,0,0,0,572.4,167.91Z" transform="translate(-431.19 -108.3)"/><path class="cls-1" d="M574.72,157.13c1.7-2.55,2.81-4.32,2.48-5.45a1.17,1.17,0,0,0-1.64-.8,2.54,2.54,0,0,0-1.34,1.26l-1.26-.69a3.78,3.78,0,0,1,2.43-2.07,2.62,2.62,0,0,1,3.51,1.69c.39,1.32-.56,3.12-1.69,4.89.44-.18,1-.39,1.4-.51l1.86-.54.45,1.52L575,158.17Z" transform="translate(-431.19 -108.3)"/><path class="cls-1" d="M588.35,160l-4.11,1.2-.71-2.42,4.11-1.2-1.27-4.29,2.52-.74,1.26,4.29,4.1-1.21L595,158l-4.1,1.21,1.26,4.29-2.51.74Z" transform="translate(-431.19 -108.3)"/><path class="cls-1" d="M607.52,160l-.09,0,.09,1.34-2.68.79L600,145.84l3.42-1,1.18,4,.4,1.86.09,0a4.83,4.83,0,0,1,2.77-2.25c2.88-.85,5.33.94,6.38,4.49,1.17,4-.58,7-3.16,7.73A4.67,4.67,0,0,1,607.52,160Zm3.26-6c-.61-2.08-1.59-2.91-3-2.48a3,3,0,0,0-1.82,1.7l1.38,4.66a3.11,3.11,0,0,0,2.21.18C610.76,157.66,611.49,156.36,610.78,154Z" transform="translate(-431.19 -108.3)"/><path class="cls-1" d="M620,145.08l10.72-3.16.72,2.42-10.72,3.16Zm1.6,5.42,10.72-3.16.71,2.42-10.72,3.16Z" transform="translate(-431.19 -108.3)"/><path class="cls-1" d="M640.29,145.45c-1.13-3.85,1.34-7,4.9-8a6.48,6.48,0,0,1,4.78.3l-1,2.59a4.45,4.45,0,0,0-2.83-.18,3.28,3.28,0,0,0-2.39,4.29,3.23,3.23,0,0,0,4.21,2.32,5.5,5.5,0,0,0,2.72-2l2,1.76a7.85,7.85,0,0,1-4.25,3.1C644.86,150.68,641.42,149.28,640.29,145.45Z" transform="translate(-431.19 -108.3)"/><path class="cls-5" d="M759.34,269l.64-2.73a3.19,3.19,0,0,0,.93.16,2.47,2.47,0,0,0,2.53-1.58l.23-.62-5.2-11.74H762l2,5.18c.42,1.13.81,2.35,1.19,3.61h.1c.32-1.2.73-2.44,1.1-3.61l1.76-5.18h3.38l-4.74,12.17c-1.18,3-2.61,4.58-5.65,4.58A7.08,7.08,0,0,1,759.34,269Z" transform="translate(-431.19 -108.3)"/><path class="cls-5" d="M778.84,252.45H790V255H778.84Zm0,5.65H790v2.52H778.84Z" transform="translate(-431.19 -108.3)"/><path class="cls-5" d="M798,262.5c4.42-3.71,7.39-6.33,7.39-8.55,0-1.49-.93-2.31-2.54-2.31a4.71,4.71,0,0,0-3.1,1.57l-1.92-1.93a7.1,7.1,0,0,1,5.51-2.45c3.24,0,5.45,1.95,5.45,4.92,0,2.6-2.67,5.36-5.66,8,.88-.09,2-.18,2.8-.18h3.65v3H798Z" transform="translate(-431.19 -108.3)"/><path class="cls-5" d="M821.07,258.29l-3.9-5.79H821l1.23,1.94c.36.68.85,1.4,1.25,2.06h.1c.31-.66.69-1.39,1-2.06l1.06-1.94h3.73l-3.93,6.18,4.19,5.86h-3.85l-1.37-2c-.44-.67-.94-1.42-1.38-2.1h-.1c-.36.69-.76,1.39-1.12,2.11l-1.19,2H816.9Z" transform="translate(-431.19 -108.3)"/><path class="cls-5" d="M805.33,384.51c2.58-1.68,4.33-2.87,4.47-4,.1-.8-.34-1.29-1.2-1.39a2.5,2.5,0,0,0-1.74.62l-.89-1.14a3.77,3.77,0,0,1,3.07-.94,2.62,2.62,0,0,1,2.57,3c-.17,1.38-1.76,2.67-3.51,3.85.47,0,1.07,0,1.49.09l1.94.24-.2,1.59-6.13-.75Z" transform="translate(-431.19 -108.3)"/><path class="cls-5" d="M815.41,385.83l1-1.09a3.07,3.07,0,0,0,1.89,1.07c.89.11,1.57-.16,1.65-.78s-.41-1.23-2.32-1.46l.16-1.34c1.6.19,2.25-.18,2.33-.83s-.35-.95-1.09-1a2.7,2.7,0,0,0-1.82.5l-.82-1.27a4.36,4.36,0,0,1,2.9-.71c1.79.22,2.92,1.18,2.75,2.61-.11.85-.76,1.38-1.79,1.63v.05a2.14,2.14,0,0,1,1.58,2.21c-.19,1.52-1.81,2.2-3.53,2A4,4,0,0,1,815.41,385.83Z" transform="translate(-431.19 -108.3)"/><path class="cls-5" d="M826.73,381.73l5.92.73-.17,1.34-5.92-.73Zm-.37,3,5.92.72-.17,1.34-5.91-.73Z" transform="translate(-431.19 -108.3)"/><path class="cls-5" d="M836.05,388.38l1-1.1a3,3,0,0,0,1.82,1.06c.93.11,1.64-.25,1.74-1.09s-.48-1.34-1.33-1.44a2.39,2.39,0,0,0-1.43.24l-.78-.65.73-4.09,5,.61-.2,1.6-3.37-.42-.32,1.51a3.07,3.07,0,0,1,1.09-.05,2.52,2.52,0,0,1,2.5,2.88A3,3,0,0,1,839,389.9,4.3,4.3,0,0,1,836.05,388.38Z" transform="translate(-431.19 -108.3)"/><path class="cls-5" d="M846.88,386.76c.38-3.05,2.26-4.22,4.06-4a3.81,3.81,0,0,1,2.49,1.31l-1.14,1a2.26,2.26,0,0,0-1.37-.77c-1-.13-2,.49-2.31,2.66s.44,2.72,1.22,2.82a1.19,1.19,0,0,0,1.4-1.17,1.07,1.07,0,0,0-1.06-1.33,2,2,0,0,0-1.67.68l.07-1.24a3.08,3.08,0,0,1,2.17-.73,2.34,2.34,0,0,1,2.22,2.84,2.76,2.76,0,0,1-3.27,2.37C848,391,846.53,389.63,846.88,386.76Z" transform="translate(-431.19 -108.3)"/><path class="cls-5" d="M859,388.84l-1.69-3.32,2,.25.53,1.11c.15.38.36.79.53,1.17h.05c.21-.34.46-.7.67-1l.69-1,2,.24-2.48,3,1.83,3.38-2-.25-.59-1.14c-.19-.39-.41-.81-.6-1.2h0l-.73,1-.76,1-2-.24Z" transform="translate(-431.19 -108.3)"/><path class="cls-5" d="M867.1,392.09c2.58-1.68,4.32-2.87,4.47-4a1.18,1.18,0,0,0-1.2-1.39,2.54,2.54,0,0,0-1.75.62l-.89-1.14a3.8,3.8,0,0,1,3.08-.94,2.63,2.63,0,0,1,2.57,3c-.17,1.38-1.76,2.67-3.52,3.85.48,0,1.07,0,1.5.09l1.93.24-.19,1.59-6.14-.75Z" transform="translate(-431.19 -108.3)"/><path class="cls-5" d="M879.21,394h-.05l-.24.67-1.48-.18,1.11-9,1.89.24-.27,2.2-.19,1h0a2.63,2.63,0,0,1,1.84-.52c1.59.2,2.41,1.59,2.17,3.55-.27,2.2-1.76,3.29-3.18,3.12A2.55,2.55,0,0,1,879.21,394Zm2.88-2.27c.14-1.14-.17-1.76-1-1.86a1.65,1.65,0,0,0-1.25.45l-.31,2.58a1.67,1.67,0,0,0,1,.55C881.29,393.52,881.93,393,882.09,391.71Z" transform="translate(-431.19 -108.3)"/><path class="cls-5" d="M675.58,281.78c-.94-7.71,4.23-14.25,12.6-15.27s14.94,4.12,15.87,11.83-4.22,14.27-12.59,15.28S676.5,289.41,675.58,281.78Zm14,21.82-7.63.93-.7-5.83,7.62-.92-.95-7.87,6-.73,1,7.87,7.62-.93.7,5.83-7.62.92.73,6-6,.73Zm8.22-24.51c-.59-4.86-4.35-8-9-7.41s-7.68,4.5-7.09,9.36,4.41,8,9.12,7.42S698.41,283.93,697.83,279.09Z" transform="translate(-431.19 -108.3)"/><path class="cls-5" d="M850.73,436.64c0-2.42.33-11.4.37-18.18h-10c0,9.68-.52,21-1.2,31.79l-12-.7a253.32,253.32,0,0,0,2-31.09h-8v-9L828,409h41.3v9.47H862.6c-.49,7.11-.54,16.79-.54,18.67,0,2.78,1.29,3.69,3.65,3.69a10.08,10.08,0,0,0,1.91-.35l1.43,8.86a15.44,15.44,0,0,1-6.21,1.2C853.77,450.53,850.73,445.06,850.73,436.64Z" transform="translate(-431.19 -108.3)"/><rect class="cls-1" x="709.19" y="114.05" width="63.83" height="42.95" transform="matrix(0.98, 0.19, -0.19, 0.98, -391.25, -248.42)"/><polygon class="cls-30" points="340.08 14.52 334.96 40.58 333.04 50.38 279.75 39.93 282.19 27.51 286.79 4.06 340.08 14.52"/><polygon class="cls-31" points="334.96 40.58 333.04 50.38 279.75 39.93 282.19 27.51 305.44 20.25 314.79 35.23 322.79 28.35 334.96 40.58"/><path class="cls-2" d="M836.17,292.92H809.06a3.61,3.61,0,0,0-3.61,3.61h0a3.61,3.61,0,0,0,3.61,3.61h27.11a3.61,3.61,0,0,0,3.62-3.61h0A3.62,3.62,0,0,0,836.17,292.92Z" transform="translate(-431.19 -108.3)"/><path class="cls-2" d="M892,292.92h-44a3.61,3.61,0,0,0-3.61,3.61h0a3.61,3.61,0,0,0,3.61,3.61h44.08a3.62,3.62,0,0,0,3.53-4.38A3.69,3.69,0,0,0,892,292.92Z" transform="translate(-431.19 -108.3)"/><path class="cls-2" d="M792.84,292.92h-60.2a3.7,3.7,0,0,0-3.65,2.84,3.63,3.63,0,0,0,3.53,4.38h60.32a3.6,3.6,0,0,0,3.61-3.61h0A3.61,3.61,0,0,0,792.84,292.92Z" transform="translate(-431.19 -108.3)"/><path class="cls-2" d="M755.77,310.56H732.64a3.69,3.69,0,0,0-3.65,2.85,3.62,3.62,0,0,0,3.53,4.37h23.25a3.61,3.61,0,0,0,3.61-3.61h0A3.61,3.61,0,0,0,755.77,310.56Z" transform="translate(-431.19 -108.3)"/><path class="cls-2" d="M817.17,310.56H771.73a3.61,3.61,0,0,0-3.61,3.61h0a3.61,3.61,0,0,0,3.61,3.61h45.44a3.61,3.61,0,0,0,3.62-3.61h0A3.62,3.62,0,0,0,817.17,310.56Z" transform="translate(-431.19 -108.3)"/><path class="cls-2" d="M892,310.56h-59.6a3.61,3.61,0,0,0-3.61,3.61h0a3.61,3.61,0,0,0,3.61,3.61h59.72a3.61,3.61,0,0,0,3.53-4.37A3.69,3.69,0,0,0,892,310.56Z" transform="translate(-431.19 -108.3)"/><path class="cls-2" d="M785.17,328.2H732.64a3.69,3.69,0,0,0-3.65,2.85,3.62,3.62,0,0,0,3.53,4.37h52.65a3.61,3.61,0,0,0,3.62-3.61h0A3.62,3.62,0,0,0,785.17,328.2Z" transform="translate(-431.19 -108.3)"/><path class="cls-2" d="M892,328.2H879.73a3.61,3.61,0,0,0-3.61,3.61h0a3.61,3.61,0,0,0,3.61,3.61h12.41a3.61,3.61,0,0,0,3.53-4.37A3.69,3.69,0,0,0,892,328.2Z" transform="translate(-431.19 -108.3)"/><path class="cls-2" d="M863.51,328.2H799.73a3.61,3.61,0,0,0-3.61,3.61h0a3.61,3.61,0,0,0,3.61,3.61h63.78a3.61,3.61,0,0,0,3.61-3.61h0A3.61,3.61,0,0,0,863.51,328.2Z" transform="translate(-431.19 -108.3)"/><path class="cls-2" d="M812.51,345.84H732.64a3.69,3.69,0,0,0-3.65,2.85,3.62,3.62,0,0,0,3.53,4.37h80a3.61,3.61,0,0,0,3.61-3.61h0A3.61,3.61,0,0,0,812.51,345.84Z" transform="translate(-431.19 -108.3)"/><path class="cls-2" d="M892,345.84h-65a3.61,3.61,0,0,0-3.61,3.61h0a3.61,3.61,0,0,0,3.61,3.61h65.08a3.61,3.61,0,0,0,3.53-4.37A3.69,3.69,0,0,0,892,345.84Z" transform="translate(-431.19 -108.3)"/></svg>